<svg width="66" height="92" viewBox="0 0 66 92" fill="none" xmlns="http://www.w3.org/2000/svg">
<path d="M31.3789 3.91014L29.875 6.93749H26.8086H23.7227L26.0273 9.24218L28.332 11.5664L27.1406 14.5742C26.4766 16.2344 25.7539 18.0117 25.5586 18.5195C25.3438 19.0469 25.2461 19.418 25.3242 19.3789C25.4219 19.3203 27.1797 18.2656 29.25 17.0156L33 14.7695L36.7695 17.0156C38.8203 18.2656 40.5781 19.3203 40.6758 19.3789C40.7539 19.418 40.6562 19.0469 40.4414 18.5195C40.2461 18.0117 39.5234 16.2344 38.8594 14.5742L37.668 11.5664L39.9727 9.24218L42.2773 6.93749H39.1914H36.125L34.6211 3.91014C33.7812 2.24999 33.0586 0.882799 33 0.882799C32.9414 0.882799 32.2188 2.24999 31.3789 3.91014Z" fill="#DA0F0F"/>
<path d="M32.4141 18.1094C29.6212 23.1875 24.5821 28.0313 19.2696 30.7852L16.9258 31.9961L17.8633 32.3672C23.879 34.7305 32.3751 35.5898 39.3868 34.5742C42.629 34.0859 49.0352 32.3672 49.0157 31.9766C49.0157 31.8984 48.4102 31.5664 47.6876 31.2539C42.2579 28.832 36.5743 23.5391 33.586 18.1094C33.3321 17.6602 33.0587 17.2891 33.0001 17.2891C32.9415 17.2891 32.668 17.6602 32.4141 18.1094Z" fill="white"/>
<path d="M21.7695 39.1836C18.1172 42.875 13.1758 46.6445 9.52344 48.5391C8.78125 48.9102 8.19531 49.2812 8.19531 49.3594C8.19531 49.5352 11.0859 51.2539 13.0781 52.25C16.9648 54.2031 21.9648 55.7656 26.5547 56.4883C29.6797 56.957 36.3203 56.957 39.4453 56.4883C44.0938 55.7461 48.9961 54.2227 52.9414 52.25C54.9727 51.2344 57.8047 49.5352 57.8047 49.3398C57.8047 49.2617 57.4727 49.0469 57.082 48.8516C55.0508 47.8945 50.7148 44.9844 48.332 43.0117C47.6875 42.4648 46.0664 40.9414 44.7188 39.6328C42.3164 37.2695 42.2578 37.2305 41.5938 37.3672L40.9102 37.5234L40.8516 39.5937L40.793 41.6445L41.3984 41.8984C42.7266 42.4453 43.9375 44.418 43.9375 46.0391C43.9375 47.9141 42.3555 50.0234 40.5977 50.4922C39.582 50.7656 37.9609 50.6484 37.1602 50.2383C35.7148 49.4766 34.5625 47.6211 34.5625 46.0391C34.5625 44.418 35.7734 42.4453 37.1016 41.8984L37.6875 41.6641V39.8672V38.0898H33.1562C29.7773 38.0703 28.0391 37.9922 26.3789 37.7187C25.168 37.543 24.0742 37.3281 23.9375 37.2891C23.8203 37.25 22.8438 38.0898 21.7695 39.1836Z" fill="white"/>
<path d="M12.8828 57.6601C9.8555 60.2969 5.57815 63.3242 1.76956 65.5312C0.363308 66.332 0.0312771 66.6055 0.207058 66.8203C0.324246 66.957 1.22268 67.6797 2.19925 68.4219C20.5196 82.2304 45.4024 82.25 63.7422 68.4805C64.7383 67.7383 65.6563 66.9961 65.7735 66.8398C65.9493 66.625 65.5 66.2734 63.3125 64.9844C60.0118 63.0117 56.3399 60.3945 53.6055 58.0898L51.5352 56.332L50.0313 56.918C46.2227 58.3828 41.3985 59.4766 37.0039 59.8867C34.5821 60.1016 29.543 60.0234 27.5899 59.75L26.75 59.6133V61.5664V63.5391L27.336 63.7734C28.6641 64.3203 29.875 66.293 29.875 67.914C29.875 69.789 28.293 71.8984 26.5352 72.3672C25.5196 72.6406 23.8985 72.5234 23.0977 72.1133C21.6524 71.3515 20.5 69.4961 20.5 67.914C20.5 66.293 21.711 64.3203 23.0391 63.7734L23.625 63.5391V61.3516V59.1641L21.4375 58.6172C20.2266 58.3047 18.1563 57.6797 16.8477 57.2109C15.5391 56.7422 14.4453 56.3516 14.4063 56.3711C14.3672 56.3711 13.6836 56.957 12.8828 57.6601Z" fill="white"/>
<path d="M27.8242 82.4258C27.7461 82.9727 26.9453 90.8438 26.9453 91.1758C26.9453 91.2539 29.6797 91.3125 33 91.3125C36.3398 91.3125 39.0547 91.2539 39.0547 91.1758C39.0547 90.8438 38.2539 82.9727 38.1758 82.4258L38.0781 81.8398H33H27.9219L27.8242 82.4258Z" fill="white"/>
</svg>
